# xmcd
#
# Track frame offsets:
#	150
#	10859
#	21528
#	36030
#	50321
#	62839
#	73851
#	87441
#	100330
#	112977
#	126075
#	138791
#	150886
#	165674
#	178878
#	192176
#	205687
#	217034
#	230418
#	240439
#	254534
#	268697
#	279299
#	290079
#	303190
#	315155
#
# Disc length: 4349
#
# Revision: 2
# Processed by: cddbd v1.5.1PL0 Copyright (c) Steve Scherf et al.
# Submitted via: CDex 1.30
# Normalized: r1:TDELIM( - )
#
DISCID=6b10fb1a
DTITLE=Various Artits - Jumpin Like Mad, Cool Cats and Hip Chicks - Disk 1
DYEAR=2001
DGENRE=Blues
TTITLE0=Jumpin Tonight - Joe Turner
TTITLE1=Safronia B - Calvin Boze
TTITLE2=Cow Cow Boogie - Ella Mae Morse
TTITLE3=Jumpin With Symphonie Sid - Lester Young
TTITLE4=Jump With A Shuffle - Jesse Price
TTITLE5=Oh Babe! - Kay Starr
TTITLE6=Stingy Blues - Cootie Williams Orchestra
TTITLE7=Oo-Pa-Pa-Da - Babs Three Bips and a Bop
TTITLE8=Hypin  Woman Blues - T-Bone Walker
TTITLE9=Fine Brown Frame - Nellie Lutcher
TTITLE10=Baby, Let's Be Friends - Jesse Price
TTITLE11=Be Baba Leba - Helen Humes
TTITLE12=The Frim Fram Sauce - King Cole Trio
TTITLE13=Solid Potato Salad - Ella Mae Morse
TTITLE14=Pork Chops And Salad Greens - Ernie Andrews and The Maxwell Davis Orchestra
TTITLE15=Jack's Town - Gene Ammons Quintet
TTITLE16=This Joint s Too Hip For Me - Betty Hall Jones
TTITLE17=Marihuana Boogie - Lalo Guerrero
TTITLE18=Pachuko Hop - Ike Carpenter Orchetra
TTITLE19=Juice Head Baby - Cootie Williams Orchestra
TTITLE20=Cheap Old Wine And Whiskey - Jack The Bear Parker
TTITLE21=Looped - Calvin Boze
TTITLE22=I Ain't Drunk - Jimmy Liggins
TTITLE23=All That Wine Its Gone - Big Jay McNeely
TTITLE24=I Seen What cha Done - Louis Jordan
TTITLE25=No More Alcohol - Jimmy Liggins
EXTD=\nYEAR: 2001  ID3G:   0
EXTT0=
EXTT1=
EXTT2=
EXTT3=
EXTT4=
EXTT5=
EXTT6=
EXTT7=
EXTT8=
EXTT9=
EXTT10=
EXTT11=
EXTT12=
EXTT13=
EXTT14=
EXTT15=
EXTT16=
EXTT17=
EXTT18=
EXTT19=
EXTT20=
EXTT21=
EXTT22=
EXTT23=
EXTT24=
EXTT25=
PLAYORDER=
